<svg version="1.1" id="Layer_1" xmlns="http://www.w3.org/2000/svg" xmlns:xlink="http://www.w3.org/1999/xlink" x="0px" y="0px"
	 width="100%" viewBox="0 0 400 400" enable-background="new 0 0 400 400" xml:space="preserve">
<path fill="#000000" opacity="1.000000" stroke="none" 
	d="
M200.000000,401.000000 
	C133.684769,401.000000 67.369537,401.000000 1.027151,401.000000 
	C1.027151,267.721161 1.027151,134.442307 1.027151,1.081725 
	C134.242432,1.081725 267.484924,1.081725 400.863708,1.081725 
	C400.863708,134.333252 400.863708,267.666595 400.863708,401.000000 
	C334.899841,401.000000 268.917755,401.000000 202.468277,400.609100 
	C202.328812,398.993378 202.264786,397.354218 203.049271,396.611969 
	C207.622345,392.285187 212.003769,387.589355 217.179153,384.099701 
	C228.626968,376.380707 240.756912,369.667572 252.144424,361.866547 
	C264.367371,353.493164 275.636780,343.978668 280.740448,328.845673 
	C287.363831,332.200806 293.976562,335.550537 301.452087,339.337311 
	C300.113281,331.081421 298.902527,323.615234 297.603119,315.602295 
	C291.931244,319.559357 286.739105,323.181732 280.974304,327.203644 
	C281.026550,316.948364 281.978943,307.599365 276.106781,299.397583 
	C288.808746,307.793701 304.598267,304.348297 312.912109,290.957520 
	C304.458527,279.021088 293.393372,276.064545 283.576080,279.211731 
	C274.881317,281.999054 269.952789,287.351318 269.936371,293.632904 
	C259.764984,289.538574 249.671280,290.022400 239.444519,293.868378 
	C226.032959,298.912109 214.673309,306.936676 204.582382,316.934631 
	C202.217865,319.277374 199.930405,319.322571 197.463043,317.008362 
	C194.456635,314.188568 191.490936,311.285980 188.224609,308.789551 
	C174.964813,298.655121 161.153763,290.017883 143.366516,290.916016 
	C133.803055,291.398865 125.573051,296.492035 123.143158,305.771362 
	C121.399864,312.428680 121.090546,319.461487 120.099747,326.628784 
	C115.063759,323.084534 109.945862,319.482635 104.337875,315.535797 
	C103.080811,323.697540 101.926689,331.190918 100.679001,339.291779 
	C108.319000,335.417145 114.818260,332.121033 121.370064,328.798279 
	C125.906273,342.930786 136.004608,352.113129 147.257431,359.922943 
	C160.885849,369.381500 175.211792,377.829773 188.972244,387.106293 
	C193.936768,390.453125 199.990417,393.481171 200.000000,401.000000 
M215.999908,172.490326 
	C215.999908,148.740524 215.999908,124.990723 215.999908,101.028839 
	C211.171021,101.028839 207.029282,101.028839 202.887543,101.028839 
	C204.870285,99.848557 206.966309,99.194237 209.039764,98.474854 
	C213.007660,97.098198 214.153763,93.768417 212.702805,90.519714 
	C209.261902,82.815468 205.152634,75.409744 200.882278,67.037926 
	C197.633423,73.666245 194.767288,79.562935 191.858002,85.438248 
	C186.864639,95.522301 187.723770,97.384796 198.676895,100.135056 
	C198.840439,100.176117 198.910477,100.589539 199.229279,101.261642 
	C194.754089,101.261642 190.497086,101.261642 185.744598,101.261642 
	C185.744598,129.734024 185.744598,157.784821 185.744598,186.174438 
	C170.624451,186.174438 156.021698,186.174438 141.313278,186.174438 
	C141.313278,196.243805 141.313278,205.962799 141.313278,216.202011 
	C156.344315,216.202011 171.069382,216.202011 186.120453,216.202011 
	C186.120453,244.655716 186.120453,272.586731 186.120453,300.716370 
	C196.182770,300.716370 205.901337,300.716370 216.137512,300.716370 
	C216.137512,272.386200 216.137512,244.335007 216.137512,215.767334 
	C231.375504,215.767334 246.099533,215.767334 260.745972,215.767334 
	C260.745972,205.639236 260.745972,196.037552 260.745972,185.916458 
	C245.776505,185.916458 231.052399,185.916458 215.999908,185.916458 
	C215.999908,181.426025 215.999908,177.456161 215.999908,172.490326 
M200.529907,51.000076 
	C203.935822,51.000076 207.341736,51.000076 211.476456,51.000076 
	C207.858353,43.779350 204.633301,37.343056 201.026855,30.145588 
	C197.392654,37.270035 194.174484,43.578918 190.875885,50.045460 
	C189.002701,48.456638 187.423996,47.117596 186.586365,46.407124 
	C184.285263,48.037823 182.414658,49.363449 180.684692,50.589405 
	C182.672714,52.859219 184.167633,54.566032 185.619278,56.223446 
	C192.271347,51.000092 192.271347,51.000092 200.529907,51.000076 
M110.500092,127.000000 
	C117.588295,127.000000 124.676498,127.000000 131.607697,127.000000 
	C131.607697,115.918678 131.607697,105.534805 131.607697,95.258179 
	C117.618752,95.258179 104.023338,95.258179 90.303909,95.258179 
	C90.303909,105.899910 90.303909,116.281197 90.303909,127.000000 
	C96.902374,127.000000 103.201408,127.000000 110.500092,127.000000 
M46.465263,155.975082 
	C49.335537,158.950302 52.205811,161.925522 55.408638,165.245453 
	C57.775585,158.125412 59.883114,151.785736 62.334911,144.410461 
	C53.921505,145.764450 46.412861,146.972824 38.904217,148.181183 
	C38.865627,148.647125 38.827034,149.113068 38.788445,149.579010 
	C41.181461,151.537918 43.574478,153.496811 46.465263,155.975082 
M350.519318,160.985062 
	C354.782288,157.018341 359.045288,153.051620 364.259125,148.200119 
	C355.380859,146.912003 347.880066,145.823730 339.736969,144.642273 
	C342.126984,151.812088 344.240143,158.151443 346.472168,164.847366 
	C347.874237,163.513199 348.946106,162.493271 350.519318,160.985062 
M320.000122,202.293854 
	C319.738800,207.373367 322.622833,210.451309 326.996124,211.834122 
	C332.444489,213.556870 338.279449,211.452271 340.767914,207.553757 
	C342.888733,204.231232 342.447327,196.475388 339.968048,193.499573 
	C337.217804,190.198547 330.708740,188.471558 326.285980,190.332275 
	C321.509064,192.341949 319.317932,196.154266 320.000122,202.293854 
M118.097137,282.508514 
	C116.014359,276.840729 110.822838,278.488586 107.551094,279.427368 
	C105.173355,280.109589 102.872993,284.242828 102.292000,287.183838 
	C101.598137,290.696228 102.437668,294.652191 103.235062,298.279266 
	C104.047577,301.975159 106.778656,303.162048 110.668205,303.135864 
	C114.548401,303.109711 118.112915,302.525452 118.630302,298.434418 
	C119.264824,293.417145 118.685143,288.246338 118.097137,282.508514 
M310.785980,116.693161 
	C313.279999,114.974808 315.774017,113.256454 318.218567,111.572174 
	C313.647705,103.756844 299.887054,100.532501 291.144501,108.498856 
	C289.065796,110.393005 289.563721,112.216446 292.008453,114.105255 
	C297.596497,118.422623 303.541199,119.015419 310.785980,116.693161 
M87.450180,238.095688 
	C84.085663,246.676346 92.866631,243.847137 95.369347,247.106674 
	C98.126022,244.147934 96.751877,242.033066 95.272514,239.369400 
	C93.292938,235.805115 90.716858,237.069962 87.450180,238.095688 
M315.643677,164.034653 
	C314.495270,164.459457 313.346863,164.884247 312.217560,165.301987 
	C311.992676,162.143539 311.777466,159.120834 311.562225,156.098145 
	C311.097260,156.125565 310.632263,156.153000 310.167297,156.180435 
	C310.167297,159.218918 310.167297,162.257416 310.167297,165.405624 
	C308.306793,164.813049 306.897095,164.364044 305.014343,163.764389 
	C305.413879,170.163971 309.664825,169.097794 312.960449,168.899033 
	C315.529663,168.744095 317.868622,167.605438 315.643677,164.034653 
M309.995026,247.449615 
	C311.570312,245.893799 313.620850,244.571472 314.542969,242.694733 
	C315.097443,241.566101 314.374542,238.990616 313.340851,238.137543 
	C312.360046,237.328110 309.730255,237.282257 308.734955,238.061752 
	C307.676178,238.890976 307.233490,241.120514 307.358887,242.670898 
	C307.478027,244.143936 308.679138,245.529449 309.995026,247.449615 
M355.043152,185.518311 
	C357.174194,184.243225 359.305267,182.968140 360.666321,182.153748 
	C358.945312,179.514282 357.632141,177.500336 356.440369,175.672577 
	C354.133698,177.688141 352.442841,179.165634 350.541199,180.827301 
	C352.089600,182.454163 353.307281,183.733566 355.043152,185.518311 
M51.481606,220.043259 
	C52.756718,222.174332 54.031830,224.305405 54.847301,225.668274 
	C57.486530,223.946365 59.500019,222.632690 61.326439,221.441071 
	C59.311764,219.134827 57.834480,217.443756 56.173100,215.541946 
	C54.541126,217.094894 53.264095,218.310074 51.481606,220.043259 
M75.828468,200.583557 
	C74.075348,199.328964 72.322227,198.074371 70.762543,196.958206 
	C69.604904,198.148743 67.998299,199.801010 66.866188,200.965286 
	C68.309784,202.503250 69.879143,204.175217 70.601654,204.944962 
	C72.511009,203.658646 74.170914,202.540390 75.828468,200.583557 
z"/>
<path fill="#4B89DC" opacity="1.000000" stroke="none" 
	d="
M200.333328,401.000000 
	C199.990417,393.481171 193.936768,390.453125 188.972244,387.106293 
	C175.211792,377.829773 160.885849,369.381500 147.257431,359.922943 
	C136.004608,352.113129 125.906273,342.930786 121.370064,328.798279 
	C114.818260,332.121033 108.319000,335.417145 100.679001,339.291779 
	C101.926689,331.190918 103.080811,323.697540 104.337875,315.535797 
	C109.945862,319.482635 115.063759,323.084534 120.099747,326.628784 
	C121.090546,319.461487 121.399864,312.428680 123.143158,305.771362 
	C125.573051,296.492035 133.803055,291.398865 143.366516,290.916016 
	C161.153763,290.017883 174.964813,298.655121 188.224609,308.789551 
	C191.490936,311.285980 194.456635,314.188568 197.463043,317.008362 
	C199.930405,319.322571 202.217865,319.277374 204.582382,316.934631 
	C214.673309,306.936676 226.032959,298.912109 239.444519,293.868378 
	C249.671280,290.022400 259.764984,289.538574 269.936371,293.632904 
	C269.952789,287.351318 274.881317,281.999054 283.576080,279.211731 
	C293.393372,276.064545 304.458527,279.021088 312.912109,290.957520 
	C304.598267,304.348297 288.808746,307.793701 276.106781,299.397583 
	C281.978943,307.599365 281.026550,316.948364 280.974304,327.203644 
	C286.739105,323.181732 291.931244,319.559357 297.603119,315.602295 
	C298.902527,323.615234 300.113281,331.081421 301.452087,339.337311 
	C293.976562,335.550537 287.363831,332.200806 280.740448,328.845673 
	C275.636780,343.978668 264.367371,353.493164 252.144424,361.866547 
	C240.756912,369.667572 228.626968,376.380707 217.179153,384.099701 
	C212.003769,387.589355 207.622345,392.285187 203.049271,396.611969 
	C202.264786,397.354218 202.328812,398.993378 202.000427,400.609100 
	C201.555557,401.000000 201.111099,401.000000 200.333328,401.000000 
M295.391235,281.985504 
	C288.070923,279.475342 278.716675,283.323761 273.096436,291.157776 
	C283.377014,304.795563 300.351410,303.236969 309.597015,289.747894 
	C305.089233,287.139496 300.653107,284.572540 295.391235,281.985504 
z"/>
<path fill="#4B89DC" opacity="1.000000" stroke="none" 
	d="
M215.999908,172.988312 
	C215.999908,177.456161 215.999908,181.426025 215.999908,185.916458 
	C231.052399,185.916458 245.776505,185.916458 260.745972,185.916458 
	C260.745972,196.037552 260.745972,205.639236 260.745972,215.767334 
	C246.099533,215.767334 231.375504,215.767334 216.137512,215.767334 
	C216.137512,244.335007 216.137512,272.386200 216.137512,300.716370 
	C205.901337,300.716370 196.182770,300.716370 186.120453,300.716370 
	C186.120453,272.586731 186.120453,244.655716 186.120453,216.202011 
	C171.069382,216.202011 156.344315,216.202011 141.313278,216.202011 
	C141.313278,205.962799 141.313278,196.243805 141.313278,186.174438 
	C156.021698,186.174438 170.624451,186.174438 185.744598,186.174438 
	C185.744598,157.784821 185.744598,129.734024 185.744598,101.261642 
	C190.497086,101.261642 194.754089,101.261642 199.229279,101.261642 
	C198.910477,100.589539 198.840439,100.176117 198.676895,100.135056 
	C187.723770,97.384796 186.864639,95.522301 191.858002,85.438248 
	C194.767288,79.562935 197.633423,73.666245 200.882278,67.037926 
	C205.152634,75.409744 209.261902,82.815468 212.702805,90.519714 
	C214.153763,93.768417 213.007660,97.098198 209.039764,98.474854 
	C206.966309,99.194237 204.870285,99.848557 202.887543,101.028839 
	C207.029282,101.028839 211.171021,101.028839 215.999908,101.028839 
	C215.999908,124.990723 215.999908,148.740524 215.999908,172.988312 
M204.903015,82.651039 
	C203.689072,80.436615 202.475128,78.222191 200.860855,75.277519 
	C197.669098,81.646217 194.793839,87.383415 191.574036,93.808060 
	C194.253998,95.098076 196.730194,96.289993 199.510803,97.628456 
	C199.925461,94.878990 200.214935,92.959587 200.504425,91.040192 
	C200.849548,91.065575 201.194687,91.090965 201.539825,91.116356 
	C201.839783,93.059181 202.139755,95.002007 202.569855,97.787766 
	C205.531479,96.198311 207.923126,94.914749 210.334320,93.620697 
	C208.279556,89.686317 206.639420,86.545837 204.903015,82.651039 
z"/>
<path fill="#4B89DC" opacity="1.000000" stroke="none" 
	d="
M200.050613,51.000076 
	C192.271347,51.000092 192.271347,51.000092 185.619278,56.223446 
	C184.167633,54.566032 182.672714,52.859219 180.684692,50.589405 
	C182.414658,49.363449 184.285263,48.037823 186.586365,46.407124 
	C187.423996,47.117596 189.002701,48.456638 190.875885,50.045460 
	C194.174484,43.578918 197.392654,37.270035 201.026855,30.145588 
	C204.633301,37.343056 207.858353,43.779350 211.476456,51.000076 
	C207.341736,51.000076 203.935822,51.000076 200.050613,51.000076 
z"/>
<path fill="#4B89DC" opacity="1.000000" stroke="none" 
	d="
M110.000267,127.000000 
	C103.201408,127.000000 96.902374,127.000000 90.303909,127.000000 
	C90.303909,116.281197 90.303909,105.899910 90.303909,95.258179 
	C104.023338,95.258179 117.618752,95.258179 131.607697,95.258179 
	C131.607697,105.534805 131.607697,115.918678 131.607697,127.000000 
	C124.676498,127.000000 117.588295,127.000000 110.000267,127.000000 
M95.692856,97.000511 
	C94.467743,97.654297 92.195969,98.278458 92.176506,98.966362 
	C91.933640,107.550095 92.017525,116.143074 92.017525,124.620911 
	C105.052711,124.620911 117.435883,124.620911 129.748901,124.620911 
	C129.748901,115.307175 129.748901,106.374840 129.748901,97.000076 
	C118.554405,97.000076 107.605362,97.000076 95.692856,97.000511 
z"/>
<path fill="#4B89DC" opacity="1.000000" stroke="none" 
	d="
M46.216377,155.715393 
	C43.574478,153.496811 41.181461,151.537918 38.788445,149.579010 
	C38.827034,149.113068 38.865627,148.647125 38.904217,148.181183 
	C46.412861,146.972824 53.921505,145.764450 62.334911,144.410461 
	C59.883114,151.785736 57.775585,158.125412 55.408638,165.245453 
	C52.205811,161.925522 49.335537,158.950302 46.216377,155.715393 
z"/>
<path fill="#4C89DD" opacity="1.000000" stroke="none" 
	d="
M350.268616,161.229202 
	C348.946106,162.493271 347.874237,163.513199 346.472168,164.847366 
	C344.240143,158.151443 342.126984,151.812088 339.736969,144.642273 
	C347.880066,145.823730 355.380859,146.912003 364.259125,148.200119 
	C359.045288,153.051620 354.782288,157.018341 350.268616,161.229202 
z"/>
<path fill="#4B89DC" opacity="1.000000" stroke="none" 
	d="
M320.000061,201.860199 
	C319.317932,196.154266 321.509064,192.341949 326.285980,190.332275 
	C330.708740,188.471558 337.217804,190.198547 339.968048,193.499573 
	C342.447327,196.475388 342.888733,204.231232 340.767914,207.553757 
	C338.279449,211.452271 332.444489,213.556870 326.996124,211.834122 
	C322.622833,210.451309 319.738800,207.373367 320.000061,201.860199 
M323.840912,196.736115 
	C323.556610,198.298584 323.144531,199.850357 323.012817,201.425583 
	C322.666626,205.565659 325.208252,207.938736 328.692047,208.886810 
	C332.916687,210.036469 336.987457,208.511078 338.552338,204.487671 
	C339.446106,202.189728 337.988953,198.977417 337.590332,196.176804 
	C334.373993,198.380661 330.756592,192.226456 327.505524,196.647964 
	C327.219055,197.037552 325.478180,196.357681 323.840912,196.736115 
z"/>
<path fill="#4A89DC" opacity="1.000000" stroke="none" 
	d="
M118.363762,282.825195 
	C118.685143,288.246338 119.264824,293.417145 118.630302,298.434418 
	C118.112915,302.525452 114.548401,303.109711 110.668205,303.135864 
	C106.778656,303.162048 104.047577,301.975159 103.235062,298.279266 
	C102.437668,294.652191 101.598137,290.696228 102.292000,287.183838 
	C102.872993,284.242828 105.173355,280.109589 107.551094,279.427368 
	C110.822838,278.488586 116.014359,276.840729 118.363762,282.825195 
M112.680099,299.915894 
	C117.510048,296.700989 118.734489,287.169373 114.713608,283.327209 
	C113.972748,282.619263 112.770370,282.259094 111.717873,282.035156 
	C106.200386,280.861145 104.193275,287.250488 105.165855,294.022247 
	C105.667938,297.518036 107.134766,300.939941 112.680099,299.915894 
z"/>
<path fill="#4B89DC" opacity="1.000000" stroke="none" 
	d="
M310.403137,116.824554 
	C303.541199,119.015419 297.596497,118.422623 292.008453,114.105255 
	C289.563721,112.216446 289.065796,110.393005 291.144501,108.498856 
	C299.887054,100.532501 313.647705,103.756844 318.218567,111.572174 
	C315.774017,113.256454 313.279999,114.974808 310.403137,116.824554 
M306.746429,114.724594 
	C308.693329,113.726486 310.640259,112.728371 312.669403,111.688103 
	C307.079132,105.370422 299.730316,105.213646 293.827698,111.322121 
	C297.332153,114.525627 301.404083,115.454185 306.746429,114.724594 
z"/>
<path fill="#4B89DC" opacity="1.000000" stroke="none" 
	d="
M87.754929,237.792053 
	C90.716858,237.069962 93.292938,235.805115 95.272514,239.369400 
	C96.751877,242.033066 98.126022,244.147934 95.369347,247.106674 
	C92.866631,243.847137 84.085663,246.676346 87.754929,237.792053 
z"/>
<path fill="#4E88DE" opacity="1.000000" stroke="none" 
	d="
M316.028809,164.086334 
	C317.868622,167.605438 315.529663,168.744095 312.960449,168.899033 
	C309.664825,169.097794 305.413879,170.163971 305.014343,163.764389 
	C306.897095,164.364044 308.306793,164.813049 310.167297,165.405624 
	C310.167297,162.257416 310.167297,159.218918 310.167297,156.180435 
	C310.632263,156.153000 311.097260,156.125565 311.562225,156.098145 
	C311.777466,159.120834 311.992676,162.143539 312.217560,165.301987 
	C313.346863,164.884247 314.495270,164.459457 316.028809,164.086334 
z"/>
<path fill="#4D8BDF" opacity="1.000000" stroke="none" 
	d="
M309.699768,247.201538 
	C308.679138,245.529449 307.478027,244.143936 307.358887,242.670898 
	C307.233490,241.120514 307.676178,238.890976 308.734955,238.061752 
	C309.730255,237.282257 312.360046,237.328110 313.340851,238.137543 
	C314.374542,238.990616 315.097443,241.566101 314.542969,242.694733 
	C313.620850,244.571472 311.570312,245.893799 309.699768,247.201538 
z"/>
<path fill="#4B89DC" opacity="1.000000" stroke="none" 
	d="
M354.784058,185.265640 
	C353.307281,183.733566 352.089600,182.454163 350.541199,180.827301 
	C352.442841,179.165634 354.133698,177.688141 356.440369,175.672577 
	C357.632141,177.500336 358.945312,179.514282 360.666321,182.153748 
	C359.305267,182.968140 357.174194,184.243225 354.784058,185.265640 
z"/>
<path fill="#4B89DC" opacity="1.000000" stroke="none" 
	d="
M51.734337,219.784271 
	C53.264095,218.310074 54.541126,217.094894 56.173100,215.541946 
	C57.834480,217.443756 59.311764,219.134827 61.326439,221.441071 
	C59.500019,222.632690 57.486530,223.946365 54.847301,225.668274 
	C54.031830,224.305405 52.756718,222.174332 51.734337,219.784271 
z"/>
<path fill="#4B89DC" opacity="1.000000" stroke="none" 
	d="
M75.829636,201.002838 
	C74.170914,202.540390 72.511009,203.658646 70.601654,204.944962 
	C69.879143,204.175217 68.309784,202.503250 66.866188,200.965286 
	C67.998299,199.801010 69.604904,198.148743 70.762543,196.958206 
	C72.322227,198.074371 74.075348,199.328964 75.829636,201.002838 
z"/>
<path fill="#000000" opacity="1.000000" stroke="none" 
	d="
M295.804108,281.995544 
	C300.653107,284.572540 305.089233,287.139496 309.597015,289.747894 
	C300.351410,303.236969 283.377014,304.795563 273.096436,291.157776 
	C278.716675,283.323761 288.070923,279.475342 295.804108,281.995544 
z"/>
<path fill="#000000" opacity="1.000000" stroke="none" 
	d="
M204.951141,83.028198 
	C206.639420,86.545837 208.279556,89.686317 210.334320,93.620697 
	C207.923126,94.914749 205.531479,96.198311 202.569855,97.787766 
	C202.139755,95.002007 201.839783,93.059181 201.539825,91.116356 
	C201.194687,91.090965 200.849548,91.065575 200.504425,91.040192 
	C200.214935,92.959587 199.925461,94.878990 199.510803,97.628456 
	C196.730194,96.289993 194.253998,95.098076 191.574036,93.808060 
	C194.793839,87.383415 197.669098,81.646217 200.860855,75.277519 
	C202.475128,78.222191 203.689072,80.436615 204.951141,83.028198 
z"/>
<path fill="#000000" opacity="1.000000" stroke="none" 
	d="
M96.174583,97.000290 
	C107.605362,97.000076 118.554405,97.000076 129.748901,97.000076 
	C129.748901,106.374840 129.748901,115.307175 129.748901,124.620911 
	C117.435883,124.620911 105.052711,124.620911 92.017525,124.620911 
	C92.017525,116.143074 91.933640,107.550095 92.176506,98.966362 
	C92.195969,98.278458 94.467743,97.654297 96.174583,97.000290 
M107.629318,105.000000 
	C105.450027,105.158638 103.270729,105.317268 101.091438,105.475899 
	C101.141731,105.746849 101.192024,106.017807 101.242317,106.288757 
	C107.771553,106.288757 114.300789,106.288757 120.830025,106.288757 
	C120.817070,105.859169 120.804108,105.429588 120.791153,105.000000 
	C116.725883,105.000000 112.660622,105.000000 107.629318,105.000000 
M114.370682,117.000000 
	C116.549973,116.841377 118.729271,116.682747 120.908562,116.524124 
	C120.858269,116.253166 120.807976,115.982201 120.757683,115.711243 
	C114.228447,115.711243 107.699211,115.711243 101.169975,115.711243 
	C101.182930,116.140831 101.195892,116.570412 101.208847,117.000000 
	C105.274117,117.000000 109.339378,117.000000 114.370682,117.000000 
z"/>
<path fill="#000000" opacity="1.000000" stroke="none" 
	d="
M324.126862,196.455322 
	C325.478180,196.357681 327.219055,197.037552 327.505524,196.647964 
	C330.756592,192.226456 334.373993,198.380661 337.590332,196.176804 
	C337.988953,198.977417 339.446106,202.189728 338.552338,204.487671 
	C336.987457,208.511078 332.916687,210.036469 328.692047,208.886810 
	C325.208252,207.938736 322.666626,205.565659 323.012817,201.425583 
	C323.144531,199.850357 323.556610,198.298584 324.126862,196.455322 
z"/>
<path fill="#000000" opacity="1.000000" stroke="none" 
	d="
M112.345215,299.748047 
	C107.134766,300.939941 105.667938,297.518036 105.165855,294.022247 
	C104.193275,287.250488 106.200386,280.861145 111.717873,282.035156 
	C112.770370,282.259094 113.972748,282.619263 114.713608,283.327209 
	C118.734489,287.169373 117.510048,296.700989 112.345215,299.748047 
z"/>
<path fill="#000000" opacity="1.000000" stroke="none" 
	d="
M306.348083,114.840462 
	C301.404083,115.454185 297.332153,114.525627 293.827698,111.322121 
	C299.730316,105.213646 307.079132,105.370422 312.669403,111.688103 
	C310.640259,112.728371 308.693329,113.726486 306.348083,114.840462 
z"/>
<path fill="#4B89DC" opacity="1.000000" stroke="none" 
	d="
M108.112335,105.000000 
	C112.660622,105.000000 116.725883,105.000000 120.791153,105.000000 
	C120.804108,105.429588 120.817070,105.859169 120.830025,106.288757 
	C114.300789,106.288757 107.771553,106.288757 101.242317,106.288757 
	C101.192024,106.017807 101.141731,105.746849 101.091438,105.475899 
	C103.270729,105.317268 105.450027,105.158638 108.112335,105.000000 
z"/>
<path fill="#4B89DC" opacity="1.000000" stroke="none" 
	d="
M113.887665,117.000000 
	C109.339378,117.000000 105.274117,117.000000 101.208847,117.000000 
	C101.195892,116.570412 101.182930,116.140831 101.169975,115.711243 
	C107.699211,115.711243 114.228447,115.711243 120.757683,115.711243 
	C120.807976,115.982201 120.858269,116.253166 120.908562,116.524124 
	C118.729271,116.682747 116.549973,116.841377 113.887665,117.000000 
z"/>
</svg>